<svg width="42.38166mm" height="26.013155mm" viewBox="0 0 42.381661 26.013155" version="1.1" id="svg5" xmlns="http://www.w3.org/2000/svg">
  <g id="layer1" transform="translate(-3.8093706,-11.99376)">
    <g id="g8454" transform="translate(-73.588111,-18.537846)" style="stroke-width:0.3;stroke-miterlimit:4;stroke-dasharray:none">
      <path style="fill:none;stroke:#1e293b;stroke-width:0.1;stroke-linecap:round;stroke-linejoin:round;stroke-miterlimit:4;stroke-dasharray:none;stroke-opacity:1" d="m 87.303797,46.523735 c 0,0 -1.410442,0.0568 -2.088609,-0.104443 -1.296342,-0.308225 -2.549032,-0.875563 -3.655061,-1.618669 -0.802075,-0.538889 -1.205543,-1.617956 -2.088608,-2.010286 -0.398621,-0.1771 -0.913772,0.100733 -1.305382,-0.09137 -0.340317,-0.166946 -0.806075,-0.329797 -0.704904,-0.691853 0.172734,-0.618152 2.241217,-0.72591 3.393989,-0.678797 1.515081,0.06192 2.857733,1.309801 4.373021,1.253165 0.753639,-0.02817 2.164059,0.0086 2.122361,-0.783885 -0.248589,-4.724769 1.11537,-10.861683 9.690829,-9.86168 0.902862,-0.942637 1.561366,-0.774809 2.009197,-0.386106 0.811883,-0.885921 1.41724,-1.075565 2.4338,-0.438808 0.62573,-0.981432 1.91588,-0.38636 2.5037,0.08176 0.59048,-0.471817 1.00507,-0.08737 1.40692,0.229675 8.54448,-0.882054 9.68186,4.972047 10.91428,7.843364 1.19182,0.101891 2.13361,-0.169228 2.87836,-0.476464 0.49419,0.148363 0.64788,0.663668 0.46994,1.083465 -3.64062,1.698256 -5.95612,2.719667 -9.2682,3.309138 -1.50855,0.120025 -3.63548,-0.652689 -3.63548,-0.652689" id="path869" />
      <path style="fill:none;stroke:#1e293b;stroke-width:0.1;stroke-linecap:round;stroke-linejoin:round;stroke-miterlimit:4;stroke-dasharray:none;stroke-opacity:1" d="m 87.303797,46.523735 c 1.768727,-0.43779 2.590014,-0.903176 3.261097,-1.42024" id="path4875" />
      <path style="fill:none;stroke:#1e293b;stroke-width:0.1;stroke-linecap:round;stroke-linejoin:round;stroke-miterlimit:4;stroke-dasharray:none;stroke-opacity:1" d="m 90.282822,46.632127 0.28207,-1.528633 c 1.231167,-4.343024 3.763555,-7.140848 7.221104,-8.840044 0.686206,0.407639 1.438982,0.578123 2.401894,0 0.6002,0.43659 1.15919,0.96267 2.34969,0.117483 0.57958,0.147835 0.91991,0.671628 2.0625,-0.06527 2.78599,-1.262731 4.84264,-0.996538 5.28679,2.649919 -4.83335,-1.187534 -7.66454,-0.02199 -7.83525,2.774415 -0.28738,4.487869 8.18542,6.588307 10.77982,2.344529 0.68266,-1.214147 -1.21624,-1.121225 -2.44201,-0.902587" id="path5366" />
      <path style="fill:none;stroke:#1e293b;stroke-width:0.1;stroke-linecap:round;stroke-linejoin:round;stroke-miterlimit:4;stroke-dasharray:none;stroke-opacity:1" d="m 90.28282,46.632127 c -3.24735,1.682019 -4.464879,3.648926 -4.919816,5.722863 -0.262301,1.125344 0.587248,2.126216 1.421485,2.695285 3.119018,1.849707 6.875042,2.397678 9.581186,-1.255338 4.292325,0.485993 9.697895,-1.085352 11.704185,-7.365881" id="path6256" />
      <path style="fill:none;stroke:#1e293b;stroke-width:0.1;stroke-linecap:round;stroke-linejoin:round;stroke-miterlimit:4;stroke-dasharray:none;stroke-opacity:1" d="m 87.449082,39.044714 c 0.793995,1.051118 1.587516,2.117092 2.769127,2.344527" id="path6728" />
      <path style="fill:none;stroke:#1e293b;stroke-width:0.1;stroke-linecap:round;stroke-linejoin:round;stroke-miterlimit:4;stroke-dasharray:none;stroke-opacity:1" d="m 90.328974,33.303387 c 0.314117,1.916498 0.938201,3.445539 2.233763,4.135231" id="path6730" />
      <path style="fill:none;stroke:#1e293b;stroke-width:0.1;stroke-linecap:round;stroke-linejoin:round;stroke-miterlimit:4;stroke-dasharray:none;stroke-opacity:1" d="m 93.965764,31.8819 c 0.499462,4.544167 2.412479,3.92294 2.436831,3.913703" id="path6732" />
      <path style="fill:none;stroke:#1e293b;stroke-width:0.1;stroke-linecap:round;stroke-linejoin:round;stroke-miterlimit:4;stroke-dasharray:none;stroke-opacity:1" d="m 109.69441,31.660369 c -0.80668,0.606357 -1.59246,1.242898 -1.53225,3.101425" id="path6734" />
      <path style="fill:none;stroke:#1e293b;stroke-width:0.1;stroke-linecap:round;stroke-linejoin:round;stroke-miterlimit:4;stroke-dasharray:none;stroke-opacity:1" d="m 113.3312,33.709525 c -1.90433,0.222166 -2.73298,0.997542 -2.91681,2.104538" id="path6736" />
      <path style="fill:none;stroke:#1e293b;stroke-width:0.1;stroke-linecap:round;stroke-linejoin:round;stroke-miterlimit:4;stroke-dasharray:none;stroke-opacity:1" d="m 115.60189,37.457081 c -1.52476,-0.546416 -3.07818,-0.462097 -4.65214,0.07384" id="path6738" />
      <path style="fill:none;stroke:#1e293b;stroke-width:0.1;stroke-linecap:round;stroke-linejoin:round;stroke-miterlimit:4;stroke-dasharray:none;stroke-opacity:1" d="m 116.30933,39.265801 c -3.62106,0.393341 -4.75424,-0.04261 -6.42246,-0.30022 0.11873,1.19118 -0.11447,2.27238 -0.7832,3.217478" id="path6740" />
      <path style="fill:none;stroke:#1e293b;stroke-width:0.1;stroke-linecap:round;stroke-linejoin:round;stroke-miterlimit:4;stroke-dasharray:none;stroke-opacity:1" d="m 112.27894,39.377009 c 0.40472,1.343751 0.0765,1.898162 -0.12923,2.584521" id="path6742" />
      <path style="fill:none;stroke:#1e293b;stroke-width:0.1;stroke-linecap:round;stroke-linejoin:round;stroke-miterlimit:4;stroke-dasharray:none;stroke-opacity:1" d="m 114.97422,39.377009 c 0.32032,0.669524 0.34302,1.206773 0.22153,1.679937" id="path6744" />
      <path style="fill:none;stroke:#1e293b;stroke-width:0.1;stroke-linecap:round;stroke-linejoin:round;stroke-miterlimit:4;stroke-dasharray:none;stroke-opacity:1" d="m 87.338314,52.428835 c 0.453629,0.06171 0.884105,0.187078 1.199957,0.627669" id="path6746" />
      <path style="fill:none;stroke:#1e293b;stroke-width:0.1;stroke-linecap:round;stroke-linejoin:round;stroke-miterlimit:4;stroke-dasharray:none;stroke-opacity:1" d="m 89.867453,53.167269 c -0.0699,-0.143739 0.979253,-0.571459 1.181494,-0.369218" id="path6748" />
      <path style="fill:none;stroke:#1e293b;stroke-width:0.1;stroke-linecap:round;stroke-linejoin:round;stroke-miterlimit:4;stroke-dasharray:none;stroke-opacity:1" d="m 98.151502,46.432358 c 0.06376,-1.051505 0.876434,-2.19224 2.010288,-1.644779 -0.380273,2.015555 -1.562233,1.881939 -2.010288,1.644779 z" id="path7562" />
    </g>
  </g>
</svg>
